<mxfile host="app.diagrams.net" modified="2022-05-27T13:09:56.038Z" agent="5.0 (Windows NT 10.0; Win64; x64) AppleWebKit/537.36 (KHTML, like Gecko) Chrome/102.0.5005.62 Safari/537.36" etag="dQzm-Ad2MGVAaCYrdN7z" version="18.1.2" type="github">
  <diagram id="C5RBs43oDa-KdzZeNtuy" name="Page-1">
    <mxGraphModel dx="2031" dy="2258" grid="1" gridSize="10" guides="1" tooltips="1" connect="1" arrows="1" fold="1" page="1" pageScale="1" pageWidth="827" pageHeight="1169" math="0" shadow="0">
      <root>
        <mxCell id="WIyWlLk6GJQsqaUBKTNV-0" />
        <mxCell id="WIyWlLk6GJQsqaUBKTNV-1" parent="WIyWlLk6GJQsqaUBKTNV-0" />
        <mxCell id="DiBvmg1Y5u35zd0sQXva-27" value="" style="edgeStyle=orthogonalEdgeStyle;rounded=0;orthogonalLoop=1;jettySize=auto;html=1;" edge="1" parent="WIyWlLk6GJQsqaUBKTNV-1" source="WIyWlLk6GJQsqaUBKTNV-3" target="DiBvmg1Y5u35zd0sQXva-23">
          <mxGeometry relative="1" as="geometry" />
        </mxCell>
        <mxCell id="WIyWlLk6GJQsqaUBKTNV-3" value="Generate two unique items from data list randomly and assign them to a or b" style="rounded=1;whiteSpace=wrap;html=1;fontSize=12;glass=0;strokeWidth=1;shadow=0;" parent="WIyWlLk6GJQsqaUBKTNV-1" vertex="1">
          <mxGeometry x="315" y="80" width="130" height="60" as="geometry" />
        </mxCell>
        <mxCell id="DiBvmg1Y5u35zd0sQXva-2" value="" style="edgeStyle=orthogonalEdgeStyle;rounded=0;orthogonalLoop=1;jettySize=auto;html=1;" edge="1" parent="WIyWlLk6GJQsqaUBKTNV-1" source="DiBvmg1Y5u35zd0sQXva-1" target="WIyWlLk6GJQsqaUBKTNV-3">
          <mxGeometry relative="1" as="geometry" />
        </mxCell>
        <mxCell id="DiBvmg1Y5u35zd0sQXva-1" value="Start" style="strokeWidth=2;html=1;shape=mxgraph.flowchart.start_1;whiteSpace=wrap;" vertex="1" parent="WIyWlLk6GJQsqaUBKTNV-1">
          <mxGeometry x="330" y="-50" width="100" height="60" as="geometry" />
        </mxCell>
        <mxCell id="DiBvmg1Y5u35zd0sQXva-31" value="" style="edgeStyle=orthogonalEdgeStyle;rounded=0;orthogonalLoop=1;jettySize=auto;html=1;" edge="1" parent="WIyWlLk6GJQsqaUBKTNV-1" source="DiBvmg1Y5u35zd0sQXva-23" target="DiBvmg1Y5u35zd0sQXva-30">
          <mxGeometry relative="1" as="geometry" />
        </mxCell>
        <mxCell id="DiBvmg1Y5u35zd0sQXva-37" value="" style="edgeStyle=orthogonalEdgeStyle;rounded=0;orthogonalLoop=1;jettySize=auto;html=1;" edge="1" parent="WIyWlLk6GJQsqaUBKTNV-1" source="DiBvmg1Y5u35zd0sQXva-23" target="DiBvmg1Y5u35zd0sQXva-28">
          <mxGeometry relative="1" as="geometry" />
        </mxCell>
        <mxCell id="DiBvmg1Y5u35zd0sQXva-23" value="Ask for user input:&lt;br&gt;(Choose a or b)" style="rhombus;whiteSpace=wrap;html=1;rounded=1;glass=0;strokeWidth=1;shadow=0;" vertex="1" parent="WIyWlLk6GJQsqaUBKTNV-1">
          <mxGeometry x="325" y="190" width="110" height="100" as="geometry" />
        </mxCell>
        <mxCell id="DiBvmg1Y5u35zd0sQXva-39" style="edgeStyle=orthogonalEdgeStyle;rounded=0;orthogonalLoop=1;jettySize=auto;html=1;entryX=0;entryY=0.5;entryDx=0;entryDy=0;" edge="1" parent="WIyWlLk6GJQsqaUBKTNV-1" source="DiBvmg1Y5u35zd0sQXva-28" target="DiBvmg1Y5u35zd0sQXva-35">
          <mxGeometry relative="1" as="geometry">
            <mxPoint x="190" y="400" as="targetPoint" />
            <Array as="points">
              <mxPoint x="190" y="390" />
            </Array>
          </mxGeometry>
        </mxCell>
        <mxCell id="DiBvmg1Y5u35zd0sQXva-28" value="Assign input variable to item b" style="whiteSpace=wrap;html=1;rounded=1;glass=0;strokeWidth=1;shadow=0;" vertex="1" parent="WIyWlLk6GJQsqaUBKTNV-1">
          <mxGeometry x="130" y="210" width="120" height="60" as="geometry" />
        </mxCell>
        <mxCell id="DiBvmg1Y5u35zd0sQXva-38" style="edgeStyle=orthogonalEdgeStyle;rounded=0;orthogonalLoop=1;jettySize=auto;html=1;entryX=1;entryY=0.5;entryDx=0;entryDy=0;" edge="1" parent="WIyWlLk6GJQsqaUBKTNV-1" source="DiBvmg1Y5u35zd0sQXva-30" target="DiBvmg1Y5u35zd0sQXva-35">
          <mxGeometry relative="1" as="geometry">
            <mxPoint x="570" y="390" as="targetPoint" />
            <Array as="points">
              <mxPoint x="570" y="390" />
            </Array>
          </mxGeometry>
        </mxCell>
        <mxCell id="DiBvmg1Y5u35zd0sQXva-30" value="Assign input variable to item a" style="whiteSpace=wrap;html=1;rounded=1;glass=0;strokeWidth=1;shadow=0;" vertex="1" parent="WIyWlLk6GJQsqaUBKTNV-1">
          <mxGeometry x="510" y="210" width="120" height="60" as="geometry" />
        </mxCell>
        <mxCell id="DiBvmg1Y5u35zd0sQXva-33" value="&lt;b&gt;a&lt;/b&gt;" style="text;html=1;strokeColor=none;fillColor=none;align=center;verticalAlign=middle;whiteSpace=wrap;rounded=0;" vertex="1" parent="WIyWlLk6GJQsqaUBKTNV-1">
          <mxGeometry x="420" y="210" width="60" height="30" as="geometry" />
        </mxCell>
        <mxCell id="DiBvmg1Y5u35zd0sQXva-34" value="&lt;b&gt;b&lt;/b&gt;" style="text;html=1;strokeColor=none;fillColor=none;align=center;verticalAlign=middle;whiteSpace=wrap;rounded=0;" vertex="1" parent="WIyWlLk6GJQsqaUBKTNV-1">
          <mxGeometry x="280" y="210" width="60" height="30" as="geometry" />
        </mxCell>
        <mxCell id="DiBvmg1Y5u35zd0sQXva-41" value="" style="edgeStyle=orthogonalEdgeStyle;rounded=0;orthogonalLoop=1;jettySize=auto;html=1;" edge="1" parent="WIyWlLk6GJQsqaUBKTNV-1" source="DiBvmg1Y5u35zd0sQXva-35" target="DiBvmg1Y5u35zd0sQXva-40">
          <mxGeometry relative="1" as="geometry" />
        </mxCell>
        <mxCell id="DiBvmg1Y5u35zd0sQXva-35" value="Compare followers value between a and b" style="whiteSpace=wrap;html=1;rounded=1;glass=0;strokeWidth=1;shadow=0;" vertex="1" parent="WIyWlLk6GJQsqaUBKTNV-1">
          <mxGeometry x="315" y="360" width="125" height="60" as="geometry" />
        </mxCell>
        <mxCell id="DiBvmg1Y5u35zd0sQXva-45" style="edgeStyle=orthogonalEdgeStyle;rounded=0;orthogonalLoop=1;jettySize=auto;html=1;entryX=1;entryY=0.5;entryDx=0;entryDy=0;exitX=1;exitY=0.5;exitDx=0;exitDy=0;" edge="1" parent="WIyWlLk6GJQsqaUBKTNV-1" source="DiBvmg1Y5u35zd0sQXva-40" target="WIyWlLk6GJQsqaUBKTNV-3">
          <mxGeometry relative="1" as="geometry">
            <mxPoint x="750" y="110" as="targetPoint" />
            <Array as="points">
              <mxPoint x="750" y="520" />
              <mxPoint x="750" y="110" />
            </Array>
          </mxGeometry>
        </mxCell>
        <mxCell id="DiBvmg1Y5u35zd0sQXva-47" value="" style="edgeStyle=orthogonalEdgeStyle;rounded=0;orthogonalLoop=1;jettySize=auto;html=1;" edge="1" parent="WIyWlLk6GJQsqaUBKTNV-1" source="DiBvmg1Y5u35zd0sQXva-40" target="DiBvmg1Y5u35zd0sQXva-46">
          <mxGeometry relative="1" as="geometry" />
        </mxCell>
        <mxCell id="DiBvmg1Y5u35zd0sQXva-40" value="Is followers value of chosen item greater than the other item?" style="rhombus;whiteSpace=wrap;html=1;rounded=1;glass=0;strokeWidth=1;shadow=0;" vertex="1" parent="WIyWlLk6GJQsqaUBKTNV-1">
          <mxGeometry x="291.25" y="455" width="172.5" height="130" as="geometry" />
        </mxCell>
        <mxCell id="DiBvmg1Y5u35zd0sQXva-42" value="&lt;b&gt;Yes&lt;/b&gt;" style="text;html=1;strokeColor=none;fillColor=none;align=center;verticalAlign=middle;whiteSpace=wrap;rounded=0;" vertex="1" parent="WIyWlLk6GJQsqaUBKTNV-1">
          <mxGeometry x="463.75" y="480" width="60" height="30" as="geometry" />
        </mxCell>
        <mxCell id="DiBvmg1Y5u35zd0sQXva-43" value="&lt;b&gt;No&lt;/b&gt;" style="text;html=1;strokeColor=none;fillColor=none;align=center;verticalAlign=middle;whiteSpace=wrap;rounded=0;" vertex="1" parent="WIyWlLk6GJQsqaUBKTNV-1">
          <mxGeometry x="390" y="580" width="60" height="30" as="geometry" />
        </mxCell>
        <mxCell id="DiBvmg1Y5u35zd0sQXva-49" value="" style="edgeStyle=orthogonalEdgeStyle;rounded=0;orthogonalLoop=1;jettySize=auto;html=1;" edge="1" parent="WIyWlLk6GJQsqaUBKTNV-1" source="DiBvmg1Y5u35zd0sQXva-46" target="DiBvmg1Y5u35zd0sQXva-48">
          <mxGeometry relative="1" as="geometry" />
        </mxCell>
        <mxCell id="DiBvmg1Y5u35zd0sQXva-46" value="Print final score" style="whiteSpace=wrap;html=1;rounded=1;glass=0;strokeWidth=1;shadow=0;" vertex="1" parent="WIyWlLk6GJQsqaUBKTNV-1">
          <mxGeometry x="317.5" y="640" width="120" height="60" as="geometry" />
        </mxCell>
        <mxCell id="DiBvmg1Y5u35zd0sQXva-48" value="End" style="ellipse;whiteSpace=wrap;html=1;rounded=1;glass=0;strokeWidth=1;shadow=0;" vertex="1" parent="WIyWlLk6GJQsqaUBKTNV-1">
          <mxGeometry x="317.5" y="750" width="120" height="60" as="geometry" />
        </mxCell>
      </root>
    </mxGraphModel>
  </diagram>
</mxfile>
